<svg width="140" height="45" viewBox="0 0 140 45" fill="none" xmlns="http://www.w3.org/2000/svg">
    <path d="M16.1611 6.27689C16.1611 4.16102 17.8825 2.43964 19.9983 2.43964C21.0235 2.43964 21.9873 2.83884 22.7118 3.56339C23.4364 4.28793 23.8356 5.25176 23.8356 6.27689V9.7389L26.2752 8.3299V6.27689C26.2752 4.59991 25.6222 3.02352 24.4371 1.83808C23.2517 0.652639 21.6757 0 19.9987 0C16.5375 0 13.7218 2.81566 13.7218 6.27689V20.0094L23.836 25.8494V37.9615C23.836 40.0774 22.1146 41.7988 19.9987 41.7988C18.9732 41.7988 18.0094 41.3996 17.2848 40.675C16.5603 39.9505 16.1611 38.9867 16.1611 37.9615V34.5003L13.7214 35.9081V37.9615C13.7214 39.6389 14.3749 41.2153 15.5607 42.4C16.7461 43.5854 18.3221 44.238 19.9983 44.238C23.4596 44.238 26.2752 41.4224 26.2752 37.9611V24.2306L16.1611 18.391V6.27689Z" fill="#3BC199"/>
    <path d="M36.8583 24.6052L27.5873 19.2524L34.3754 15.333C34.7797 15.0989 35.0312 14.6639 35.0312 14.1979C35.0312 13.9692 34.9703 13.7429 34.8548 13.5433C34.6795 13.2396 34.397 13.0227 34.0591 12.9323C33.7212 12.8415 33.368 12.8875 33.0646 13.0628L22.5261 19.1475L35.6382 26.7175C36.5258 27.2295 37.1612 28.0577 37.4264 29.0491C37.6916 30.0396 37.5549 31.0738 37.041 31.9614C36.3585 33.1433 35.085 33.8777 33.7177 33.8777C33.0473 33.8777 32.3857 33.7005 31.8037 33.3653L28.803 31.6329V34.4501L30.5861 35.4784C31.5377 36.0273 32.6206 36.3173 33.718 36.3173C35.9534 36.3173 38.0362 35.1165 39.1537 33.1834C39.2586 33.0022 39.3549 32.8156 39.4401 32.6278V32.6274C39.5254 32.4404 39.602 32.2474 39.668 32.0537C39.7014 31.9563 39.7317 31.8588 39.76 31.7606C39.9289 31.1716 40.0095 30.5622 39.9993 29.9497C39.991 29.4353 39.9187 28.9198 39.7843 28.4177C39.3502 26.7969 38.3109 25.4429 36.8583 24.6052Z" fill="#3BC199"/>
    <path d="M21.3091 6.27709C21.3091 5.927 21.1727 5.59773 20.9252 5.35019C20.6776 5.10265 20.3484 4.96631 19.9983 4.96631C19.2753 4.96631 18.6875 5.55451 18.6875 6.27709V16.9319L19.9983 17.6879L31.7992 10.8754C32.3839 10.5387 33.0467 10.3603 33.7163 10.3603C35.0844 10.3603 36.3587 11.0962 37.0412 12.2813C37.3779 12.8628 37.5559 13.5257 37.5559 14.198C37.5559 15.5633 36.8219 16.8356 35.6404 17.5193L32.6385 19.2529L35.0781 20.6611L36.8624 19.6312C38.7948 18.5118 39.9951 16.4297 39.9951 14.1983C39.9951 13.0974 39.7044 12.0129 39.1539 11.0621C38.0364 9.12497 35.9528 7.92146 33.7155 7.92146C32.6181 7.92146 31.5332 8.21261 30.5788 8.76309L21.3083 14.115V6.27709H21.3091Z" fill="url(#paint0_linear)"/>
    <path d="M0.794047 17.2546C0.870273 17.3917 0.956716 17.5328 1.05888 17.6856C1.30641 18.0573 1.59128 18.3999 1.90562 18.7037C2.27496 19.0608 2.69028 19.3736 3.14056 19.6333L12.4111 24.9861L5.62342 28.9054C5.21911 29.1396 4.96803 29.5746 4.96803 30.0406C4.96803 30.2693 5.02893 30.4956 5.14445 30.6952C5.37785 31.0995 5.81399 31.351 6.28235 31.351C6.51063 31.351 6.73617 31.2905 6.93459 31.1761L17.4715 25.0921L4.36058 17.521C3.47219 17.0078 2.83684 16.1796 2.57201 15.1894C2.30797 14.1985 2.44549 13.1643 2.95864 12.2771C3.64193 11.0948 4.91499 10.3604 6.28117 10.3604C6.95228 10.3604 7.61474 10.538 8.19665 10.8744L11.1958 12.6067V9.7895L9.4151 8.75966C8.46344 8.21075 7.37977 7.92078 6.28117 7.92078C4.04546 7.92078 1.96298 9.12193 0.846698 11.0547C0.00624272 12.5069 -0.217721 14.1992 0.216062 15.82C0.350441 16.323 0.544936 16.8055 0.794047 17.2546Z" fill="#3BC199"/>
    <path d="M6.28112 12.8871C5.81355 12.8871 5.3782 13.1382 5.1448 13.5429C4.96956 13.8462 4.92241 14.199 5.01317 14.537C5.10355 14.8753 5.32044 15.1582 5.62416 15.3334L11.1962 18.551V15.5232L6.93455 13.0623C6.73495 12.9476 6.50902 12.8871 6.28112 12.8871Z" fill="url(#paint1_linear)"/>
    <path d="M18.6884 37.9617C18.6884 38.3118 18.8248 38.6411 19.0723 38.8886C19.3198 39.1362 19.6491 39.2725 19.9996 39.2725C20.7222 39.2725 21.3104 38.6843 21.3104 37.9617V27.3077L20 26.5506L19.9972 26.5517L8.19944 33.3642C7.61595 33.7005 6.9531 33.8781 6.28238 33.8781C4.91424 33.8781 3.6396 33.143 2.95632 31.9591C2.61958 31.3748 2.44159 30.7116 2.44159 30.0409C2.44159 28.6763 3.17596 27.4036 4.35825 26.7199L7.35898 24.9871L4.91934 23.5781L3.13588 24.6076C1.20272 25.7274 0.00195312 27.8095 0.00195312 30.0409C0.00195312 31.141 0.292715 32.2255 0.843195 33.1775C1.96144 35.1146 4.04549 36.3178 6.28238 36.3178C7.3802 36.3178 8.46466 36.027 9.41906 35.4765L18.6884 30.1242V37.9617Z" fill="url(#paint2_linear)"/>
    <path d="M33.7181 31.3515C34.1853 31.3515 34.6206 31.1004 34.8544 30.6957C35.0297 30.3923 35.0764 30.0395 34.9861 29.7016C34.8957 29.3633 34.6788 29.0804 34.3755 28.9055L28.8035 25.6891V28.7154L33.0651 31.1758C33.2635 31.2905 33.4894 31.3515 33.7181 31.3515Z" fill="url(#paint3_linear)"/>
    <defs>
        <linearGradient id="paint0_linear" x1="20.9494" y1="27.1925" x2="25.3285" y2="2.89748" gradientUnits="userSpaceOnUse">
            <stop stop-color="#913AFF"/>
            <stop offset="1" stop-color="#8D4BF9"/>
        </linearGradient>
        <linearGradient id="paint1_linear" x1="5.62915" y1="20.9081" x2="7.54863" y2="12.2828" gradientUnits="userSpaceOnUse">
            <stop stop-color="#913AFF"/>
            <stop offset="1" stop-color="#8D4BF9"/>
        </linearGradient>
        <linearGradient id="paint2_linear" x1="2.26389" y1="45.8038" x2="6.64266" y2="21.5093" gradientUnits="userSpaceOnUse">
            <stop stop-color="#913AFF"/>
            <stop offset="1" stop-color="#8D4BF9"/>
        </linearGradient>
        <linearGradient id="paint3_linear" x1="29.4645" y1="33.7079" x2="31.3832" y2="25.0848" gradientUnits="userSpaceOnUse">
            <stop stop-color="#913AFF"/>
            <stop offset="1" stop-color="#8D4BF9"/>
        </linearGradient>
    </defs>
</svg>
